#!OML:ASF H:\Martial Arts Walks\Project 1\Capture day 1\Session 1\male.ASF
:FULLY-SPECIFIED
:DEGREES
3414
root -2.8814 13.6496 -28.2186 -399.192 68.8403 -405.36
lowerback 10.2087 -2.55422 3.31463
upperback -1.14806 -2.23871 8.05794
thorax -6.78475 -0.970433 7.09013
lowerneck 10.0546 -17.3585 -18.3129
upperneck 2.88357 -25.3016 15.5188
head 3.56311 -12.979 6.49318
rclavicle 3.68746e-014 -6.63941e-014
rhumerus -30.7616 -30.7281 -37.9145
rradius 72.0994
rwrist -40.7003
rhand -32.6084 -65.0879
rfingers 7.12502
rthumb -5.83616 814.987
lclavicle 3.68746e-014 -6.63941e-014
lhumerus -243.736 200.17 -84.5518
lradius 101.051
lwrist 56.1467
lhand -25.7339 391.013
lfingers 7.12502
lthumb 0.802726 420.991
rfemur 9.65334 -9.81311 14.9772
rtibia 42.6102
rfoot -33.8277 -14.5168
rtoes -19.4503
lfemur -65.9495 28.1121 0.619351
ltibia 80.8034
lfoot -17.3896 -16.7336
ltoes 5.43517
3415
root -2.87837 13.65 -28.2174 -399.075 68.8179 -405.279
lowerback 10.1579 -2.49204 3.324
upperback -1.16607 -2.16017 8.02842
thorax -6.78388 -0.933092 7.03748
lowerneck 10.065 -17.4108 -18.3145
upperneck 2.9143 -25.3763 15.5169
head 3.58322 -13.0162 6.48223
rclavicle -4.42296e-015 -5.76476e-014
rhumerus -30.4785 -31.2374 -38.271
rradius 72.5529
rwrist -40.5157
rhand -32.5788 -64.9765
rfingers 7.12502
rthumb -5.80752 814.877
lclavicle -4.42296e-015 -5.76476e-014
lhumerus -244.718 200.048 -83.705
lradius 101.402
lwrist 57.3648
lhand -25.7168 390.647
lfingers 7.12502
lthumb 0.819276 420.625
rfemur 9.62543 -9.78495 14.9754
rtibia 42.5861
rfoot -33.8167 -14.5194
rtoes -19.455
lfemur -65.9534 28.0946 0.629662
ltibia 80.8045
lfoot -17.4613 -16.5941
ltoes 4.90612
3416
root -2.87443 13.6516 -28.2114 -398.952 68.7966 -405.141
lowerback 10.1359 -2.42689 3.22852
upperback -1.16019 -2.08807 8.02984
thorax -6.76797 -0.894502 7.08058
lowerneck 10.0686 -17.4451 -18.3661
upperneck 2.92384 -25.4307 15.536
head 3.60363 -13.0437 6.48508
rclavicle 8.71174e-014 -5.48646e-014
rhumerus -30.1109 -31.7124 -38.6862
rradius 72.9979
rwrist -40.6024
rhand -33.3572 -65.9108
rfingers 7.12502
rthumb -6.55907 815.789
lclavicle 8.71174e-014 -5.48646e-014
lhumerus -245.707 199.866 -82.8883
lradius 101.786
lwrist 58.3892
lhand -25.3058 390.231
lfingers 7.12502
lthumb 1.2162 420.207
rfemur 9.65599 -9.68858 14.9979
rtibia 42.5673
rfoot -33.8107 -14.5411
rtoes -19.4255
lfemur -65.8611 28.1054 0.680574
ltibia 80.8002
lfoot -17.4473 -16.5806
ltoes 4.98464
3417
root -2.87049 13.652 -28.2085 -398.81 68.8092 -405.003
lowerback 10.0991 -2.36609 3.18542
upperback -1.17331 -2.01761 8.00071
thorax -6.76701 -0.859374 7.06048
lowerneck 10.1128 -17.4892 -18.4005
upperneck 2.91329 -25.5001 15.5501
head 3.61144 -13.0802 6.48787
rclavicle -5.19573e-014 5.40694e-014
rhumerus -29.721 -32.2944 -39.0851
rradius 73.3894
rwrist -40.5221
rhand -33.5494 -65.9363
rfingers 7.12502
rthumb -6.7446 815.809
lclavicle -5.19573e-014 5.40694e-014
lhumerus -246.663 199.656 -82.1161
lradius 102.137
lwrist 59.2589
lhand -25.1186 389.971
lfingers 7.12502
lthumb 1.39706 419.947
rfemur 9.67233 -9.67581 14.9474
rtibia 42.5396
rfoot -33.7788 -14.5772
rtoes -19.5614
lfemur -65.8302 28.0746 0.669002
ltibia 80.8083
lfoot -17.4627 -16.5395
ltoes 5.03795
3418
root -2.86503 13.6515 -28.2034 -398.503 68.7598 -404.806
lowerback 9.92882 -2.30527 3.11211
upperback -1.2035 -1.95742 8.00991
thorax -6.70488 -0.827914 7.09405
lowerneck 10.0945 -17.5058 -18.4655
upperneck 2.95964 -25.5292 15.5226
head 3.63744 -13.0941 6.47864
rclavicle 7.88181e-014 -4.77083e-015
rhumerus -29.2525 -32.8434 -39.5425
rradius 73.7482
rwrist -40.2999
rhand -33.5038 -65.9144
rfingers 7.12502
rthumb -6.70058 815.788
lclavicle 7.88181e-014 -4.77083e-015
lhumerus -247.603 199.342 -81.3871
lradius 102.471
lwrist 59.9435
lhand -24.954 389.718
lfingers 7.12502
lthumb 1.55604 419.692
rfemur 9.55889 -9.59892 14.9641
rtibia 42.518
rfoot -33.7686 -14.565
rtoes -19.4293
lfemur -65.8945 28.1702 0.648855
ltibia 80.8245
lfoot -17.5378 -16.4668
ltoes 4.69383
3419
root -2.86293 13.6509 -28.2008 -398.617 68.7859 -404.839
lowerback 10.0194 -2.28632 3.13266
upperback -1.20282 -1.92443 7.98046
thorax -6.76068 -0.812389 7.05051
lowerneck 10.1265 -17.5248 -18.5055
upperneck 2.95518 -25.5637 15.525
head 3.64226 -13.1129 6.48204
rclavicle 9.21864e-015 -1.15295e-014
rhumerus -28.8383 -33.3538 -40.0139
rradius 74.1319
rwrist -40.1945
rhand -33.527 -66.141
rfingers 7.12502
rthumb -6.72302 816.014
lclavicle 9.21864e-015 -1.15295e-014
lhumerus -248.505 199.054 -80.7379
lradius 102.772
lwrist 60.6207
lhand -24.9807 389.592
lfingers 7.12502
lthumb 1.53018 419.566
rfemur 9.67767 -9.61328 14.9443
rtibia 42.493
rfoot -33.7674 -14.6131
rtoes -19.545
lfemur -65.787 28.0446 0.721225
ltibia 80.8389
lfoot -17.5312 -16.4215
ltoes 4.73182
3420
root -2.86015 13.6491 -28.198 -398.672 68.7819 -404.868
lowerback 9.97411 -2.2802 3.12549
upperback -1.16296 -1.92362 7.98534
thorax -6.6917 -0.81284 7.05443
lowerneck 10.1004 -17.5279 -18.5504
upperneck 2.94385 -25.5689 15.5353
head 3.6507 -13.115 6.48628
rclavicle 3.79182e-014 3.18055e-014
rhumerus -28.2919 -33.7523 -40.5817
rradius 74.4501
rwrist -40.1618
rhand -33.6312 -66.3617
rfingers 7.12502
rthumb -6.82354 816.232
lclavicle 3.79182e-014 3.18055e-014
lhumerus -249.245 198.657 -80.1798
lradius 102.997
lwrist 61.306
lhand -24.7807 389.454
lfingers 7.12502
lthumb 1.72334 419.426
rfemur 9.73435 -9.61346 14.9502
rtibia 42.4741
rfoot -33.7869 -14.6121
rtoes -19.4592
lfemur -65.7519 28.0091 0.76802
ltibia 80.8637
lfoot -17.5547 -16.3487
ltoes 4.62721
3421
root -2.85775 13.6481 -28.1934 -398.674 68.7359 -404.927
lowerback 9.94034 -2.22726 3.16617
upperback -1.21254 -1.84713 7.97374
thorax -6.7348 -0.775911 7.0074
lowerneck 10.1401 -17.5561 -18.5516
upperneck 2.97002 -25.6143 15.5228
head 3.65858 -13.1389 6.47966
rclavicle 7.1637e-014 -3.02153e-014
rhumerus -27.9776 -34.0556 -41.0014
rradius 74.772
rwrist -40.2053
rhand -33.5866 -66.2378
rfingers 7.12502
rthumb -6.78047 816.109
lclavicle 7.1637e-014 -3.02153e-014
lhumerus -250.06 198.408 -79.6075
lradius 103.224
lwrist 62.0793
lhand -25.1958 389.655
lfingers 7.12502
lthumb 1.32242 419.631
rfemur 9.69924 -9.58961 15.0364
rtibia 42.4516
rfoot -33.7813 -14.6465
rtoes -19.5142
lfemur -65.7953 28.0561 0.834802
ltibia 80.8859
lfoot -17.5386 -16.3762
ltoes 4.70096
3422
root -2.85374 13.6472 -28.1926 -398.571 68.7332 -404.822
lowerback 9.93183 -2.20208 3.17423
upperback -1.22011 -1.81476 7.9516
thorax -6.74198 -0.760937 6.97328
lowerneck 10.0431 -17.5744 -18.5865
upperneck 3.07724 -25.6359 15.4864
head 3.70889 -13.1452 6.45492
rclavicle -3.4514e-014 -2.38542e-014
rhumerus -27.5305 -34.2686 -41.4695
rradius 75.0596
rwrist -40.1415
rhand -33.3854 -66.0685
rfingers 7.12502
rthumb -6.58629 815.946
lclavicle -3.4514e-014 -2.38542e-014
lhumerus -250.749 198.079 -79.1501
lradius 103.425
lwrist 63.0136
lhand -24.778 389.609
lfingers 7.12502
lthumb 1.72602 419.582
rfemur 9.71782 -9.56269 15.002
rtibia 42.4267
rfoot -33.7379 -14.6788
rtoes -19.5858
lfemur -65.7733 28.0432 0.826969
ltibia 80.9117
lfoot -17.5593 -16.3198
ltoes 4.59953
3423
root -2.85316 13.646 -28.189 -398.688 68.7513 -404.94
lowerback 9.96754 -2.15713 3.18567
upperback -1.24646 -1.74823 7.94311
thorax -6.79768 -0.72764 6.9509
lowerneck 10.0364 -17.608 -18.612
upperneck 3.11119 -25.6882 15.5228
head 3.73724 -13.171 6.45788
rclavicle -2.01518e-014 4.21423e-014
rhumerus -27.2593 -34.4492 -41.7888
rradius 75.3688
rwrist -40.0347
rhand -33.124 -65.5617
rfingers 7.12502
rthumb -6.33396 815.447
lclavicle -2.01518e-014 4.21423e-014
lhumerus -251.401 197.851 -78.6705
lradius 103.575
lwrist 64.0629
lhand -24.4647 389.451
lfingers 7.12502
lthumb 2.02854 419.421
rfemur 9.74973 -9.60808 15.0241
rtibia 42.4141
rfoot -33.7734 -14.643
rtoes -19.5763
lfemur -65.7881 27.9885 0.862295
ltibia 80.9315
lfoot -17.5825 -16.2578
ltoes 4.40045
3424
root -2.84951 13.6448 -28.1851 -398.728 68.7687 -404.961
lowerback 9.98534 -2.10336 3.17133
upperback -1.26647 -1.67634 7.92668
thorax -6.83609 -0.691485 6.93212
lowerneck 10.0489 -17.6369 -18.6146
upperneck 3.12325 -25.732 15.549
head 3.75029 -13.1932 6.45995
rclavicle 4.17945e-014 -1.31198e-014
rhumerus -26.9601 -34.5964 -42.1075
rradius 75.6438
rwrist -39.8868
rhand -33.2835 -65.7577
rfingers 7.12502
rthumb -6.48786 815.638
lclavicle 4.17945e-014 -1.31198e-014
lhumerus -252.001 197.619 -78.2278
lradius 103.708
lwrist 65.1117
lhand -24.4108 389.295
lfingers 7.12502
lthumb 2.0806 419.265
rfemur 9.81069 -9.60549 15.0292
rtibia 42.397
rfoot -33.7533 -14.6953
rtoes -19.5974
lfemur -65.7582 27.9593 0.892123
ltibia 80.9568
lfoot -17.5907 -16.2431
ltoes 4.47721
